<svg xmlns="http://www.w3.org/2000/svg" viewBox="22 22 55 55">
    <g transform="rotate(0 50 50)">
        <rect x="45.5" y="23.5" rx="4.5" ry="4.5" width="9" height="9" >
            <animate attributeName="opacity" values="1;0" keyTimes="0;1" dur="0.91s" begin="-0.8333333333333333s" repeatCount="indefinite"/>
        </rect>
    </g><g transform="rotate(30 50 50)">
    <rect x="45.5" y="23.5" rx="4.5" ry="4.5" width="9" height="9" >
        <animate attributeName="opacity" values="1;0" keyTimes="0;1" dur="0.91s" begin="-0.7575757575757576s" repeatCount="indefinite"/>
    </rect>
</g><g transform="rotate(60 50 50)">
    <rect x="45.5" y="23.5" rx="4.5" ry="4.5" width="9" height="9" >
        <animate attributeName="opacity" values="1;0" keyTimes="0;1" dur="0.91s" begin="-0.6818181818181818s" repeatCount="indefinite"/>
    </rect>
</g><g transform="rotate(90 50 50)">
    <rect x="45.5" y="23.5" rx="4.5" ry="4.5" width="9" height="9" >
        <animate attributeName="opacity" values="1;0" keyTimes="0;1" dur="0.91s" begin="-0.606060606060606s" repeatCount="indefinite"/>
    </rect>
</g><g transform="rotate(120 50 50)">
    <rect x="45.5" y="23.5" rx="4.5" ry="4.5" width="9" height="9" >
        <animate attributeName="opacity" values="1;0" keyTimes="0;1" dur="0.91s" begin="-0.5303030303030303s" repeatCount="indefinite"/>
    </rect>
</g><g transform="rotate(150 50 50)">
    <rect x="45.5" y="23.5" rx="4.5" ry="4.5" width="9" height="9" >
        <animate attributeName="opacity" values="1;0" keyTimes="0;1" dur="0.91s" begin="-0.45454545454545453s" repeatCount="indefinite"/>
    </rect>
</g><g transform="rotate(180 50 50)">
    <rect x="45.5" y="23.5" rx="4.5" ry="4.5" width="9" height="9" >
        <animate attributeName="opacity" values="1;0" keyTimes="0;1" dur="0.91s" begin="-0.3787878787878788s" repeatCount="indefinite"/>
    </rect>
</g><g transform="rotate(210 50 50)">
    <rect x="45.5" y="23.5" rx="4.5" ry="4.5" width="9" height="9" >
        <animate attributeName="opacity" values="1;0" keyTimes="0;1" dur="0.91s" begin="-0.303030303030303s" repeatCount="indefinite"/>
    </rect>
</g><g transform="rotate(240 50 50)">
    <rect x="45.5" y="23.5" rx="4.5" ry="4.5" width="9" height="9" >
        <animate attributeName="opacity" values="1;0" keyTimes="0;1" dur="0.91s" begin="-0.22727272727272727s" repeatCount="indefinite"/>
    </rect>
</g><g transform="rotate(270 50 50)">
    <rect x="45.5" y="23.5" rx="4.5" ry="4.5" width="9" height="9" >
        <animate attributeName="opacity" values="1;0" keyTimes="0;1" dur="0.91s" begin="-0.1515151515151515s" repeatCount="indefinite"/>
    </rect>
</g><g transform="rotate(300 50 50)">
    <rect x="45.5" y="23.5" rx="4.5" ry="4.5" width="9" height="9" >
        <animate attributeName="opacity" values="1;0" keyTimes="0;1" dur="0.91s" begin="-0.07575757575757575s" repeatCount="indefinite"/>
    </rect>
</g><g transform="rotate(330 50 50)">
    <rect x="45.5" y="23.5" rx="4.5" ry="4.5" width="9" height="9" >
        <animate attributeName="opacity" values="1;0" keyTimes="0;1" dur="0.91s" begin="0s" repeatCount="indefinite"/>
    </rect>
</g>
</svg>